<svg xmlns="http://www.w3.org/2000/svg" version="1.1" xmlns:xlink="http://www.w3.org/1999/xlink" xmlns:svgjs="http://svgjs.dev/svgjs" width="1000" height="925" viewBox="0 0 1000 925"><g transform="matrix(1,0,0,1,-0.02157297775823963,0.3751854750255461)"><svg viewBox="0 0 267 247" data-background-color="#ffffff" preserveAspectRatio="xMidYMid meet" height="925" width="1000" xmlns="http://www.w3.org/2000/svg" xmlns:xlink="http://www.w3.org/1999/xlink"><g id="tight-bounds" transform="matrix(1,0,0,1,0.00575998506144515,-0.09997365579206985)"><svg viewBox="0 0 266.9884058442186 247.2" height="247.2" width="266.9884058442186"><g><svg viewBox="0 0 266.9884058442186 247.2" height="247.2" width="266.9884058442186"><g><svg viewBox="0 0 266.9884058442186 247.2" height="247.2" width="266.9884058442186"><g id="textblocktransform"><svg viewBox="0 0 266.9884058442186 247.2" height="247.2" width="266.9884058442186" id="textblock"><g><svg viewBox="0 0 266.9884058442186 247.2" height="247.2" width="266.9884058442186"><path d="M266.363 53.02C265.108 27.36 261.531 20.227 261.531 20.227 250.548-6.202 236.842-0.506 224.529 3.292 202.789 3.446 181.137 9.091 159.448 12.119 113.923 12.581 68.009 4.986 22.71 23.717 18.455 29.464-4.414 24.846 0.757 56.304 2.112 69.39 7.058 83.913 6.907 95.922 7.585 98.026 8.526 93.202 8.928 96.23 10.334 104.39 12.631 100.541 14.514 105.365 11.89 118.246 13.773 128.971 15.568 140.21 12.405 143.135 8.351 141.749 6.531 151.449 6.342 158.479 5.326 157.145 4.209 156.837 3.393 156.632 1.748 157.402 2.025 159.608 2.966 167.152-1.076 171.514 1.46 178.904-0.285 186.91 2.665 193.838 2.263 202.511 2.213 204.255 2.489 205.744 2.928 206.154 4.874 208.361 2.037 212.672 2.338 217.342 22.296 249.262 43.947 227.195 64.394 241.872 69.703 231.608 65.712 245.516 67.833 243.36 69.49 240.846 70.695 251.263 72.565 245.362 72.854 243.668 72.414 239.665 73.444 240.435 73.983 240.846 74.46 240.743 74.536 238.382 74.649 234.841 73.657 237.048 73.394 235.201 76.243 225.861 75.54 248.081 78.213 247.158 78.088 244.438 77.31 240.538 78.904 241.051 80.485 237.151 80.535 233.918 81.941 242.693 81.991 244.592 82.242 245.926 82.644 246.85 87.037 237.305 91.405 250.237 96.012 245.926 98.836 241.205 101.547 248.492 104.409 246.696 105.413 245.259 106.43 242.693 107.396 247.004 119.232 247.928 131.847 244.079 143.068 247.158 173.054 241.41 205.098 249.518 236.716 241.923 244.172 238.998 251.916 234.841 259.184 231.506 259.184 231.506 265.07 222.371 265.07 181.316S266.326 145.393 266.514 112.703C266.702 80.013 267.581 78.679 266.326 53.02Z" opacity="1" fill="#222222" data-fill-palette-color="tertiary"></path><g transform="matrix(1,0,0,1,55.76831999999999,26.230666666666668)"><svg width="155.45176584421864" viewBox="2.75 -34.45000076293945 27.5 34.45000076293945" height="194.73866666666666" data-palette-color="#ffffff"><path d="M27.95-34.45L30.25 0 25.95 0 25.05-15.65Q24.4-25.35 24.5-29.8L24.5-29.8 18.65-3.9 14.4-3.9 8.25-29.85 8.3-27.55Q8.3-23.65 7.9-15.35L7.9-15.35 7.05 0 2.75 0 5.1-34.45 11-34.45 16.6-9.2 21.9-34.45 27.95-34.45Z" opacity="1" transform="matrix(1,0,0,1,0,0)" fill="#ffffff" class="wordmark-text-0" data-fill-palette-color="quaternary" id="text-0"></path></svg></g></svg></g></svg></g></svg></g><g></g></svg></g><defs></defs></svg><rect width="266.9884058442186" height="247.2" fill="none" stroke="none" visibility="hidden"></rect></g></svg></g></svg>