<?xml version="1.0" encoding="UTF-8"?>
<!DOCTYPE svg PUBLIC "-//W3C//DTD SVG 1.1//EN" "http://www.w3.org/Graphics/SVG/1.1/DTD/svg11.dtd">
<svg xmlns="http://www.w3.org/2000/svg" version="1.1" width="1000px" height="625px" style="shape-rendering:geometricPrecision; text-rendering:geometricPrecision; image-rendering:optimizeQuality; fill-rule:evenodd; clip-rule:evenodd" xmlns:xlink="http://www.w3.org/1999/xlink">
<g><path style="opacity:0.996" fill="#000000" d="M 474.5,-0.5 C 491.167,-0.5 507.833,-0.5 524.5,-0.5C 636.639,11.8785 720.472,66.8785 776,164.5C 817.992,247.736 823.659,333.403 793,421.5C 761.601,502.567 706.434,561.401 627.5,598C 594.457,612.343 560.124,621.177 524.5,624.5C 507.833,624.5 491.167,624.5 474.5,624.5C 371.15,613.433 290.983,564.767 234,478.5C 182.174,390.908 172.841,298.908 206,202.5C 237.399,121.433 292.566,62.5994 371.5,26C 404.543,11.6568 438.876,2.82344 474.5,-0.5 Z"/></g>
<g><path style="opacity:1" fill="#f5f5f5" d="M 382.5,208.5 C 382.217,207.711 381.717,207.044 381,206.5C 380.5,283.833 380.333,361.166 380.5,438.5C 376.833,438.5 373.167,438.5 369.5,438.5C 369.5,354.167 369.5,269.833 369.5,185.5C 374.099,185.2 378.599,185.533 383,186.5C 415.5,248.167 448,309.833 480.5,371.5C 476.285,372.798 472.118,372.798 468,371.5C 439.474,317.113 410.974,262.78 382.5,208.5 Z"/></g>
<g><path style="opacity:1" fill="#f8f8f8" d="M 395.5,185.5 C 399.767,185.203 403.934,185.536 408,186.5C 440.5,248.167 473,309.833 505.5,371.5C 501.167,372.833 496.833,372.833 492.5,371.5C 460.109,309.466 427.776,247.466 395.5,185.5 Z"/></g>
<g><path style="opacity:1" fill="#f6f6f6" d="M 618.5,438.5 C 618.667,361.166 618.5,283.833 618,206.5C 617.283,207.044 616.783,207.711 616.5,208.5C 588.026,262.78 559.526,317.113 531,371.5C 526.55,372.8 522.05,372.8 517.5,371.5C 484.611,309.719 452.277,247.719 420.5,185.5C 424.555,185.176 428.555,185.509 432.5,186.5C 462.928,244.36 493.595,302.027 524.5,359.5C 555,301.833 585.5,244.167 616,186.5C 620.401,185.533 624.901,185.2 629.5,185.5C 629.5,269.833 629.5,354.167 629.5,438.5C 625.833,438.5 622.167,438.5 618.5,438.5 Z"/></g>
<g><path style="opacity:1" fill="#f8f8f8" d="M 566.5,185.5 C 570.5,185.5 574.5,185.5 578.5,185.5C 556.31,229.544 533.31,273.211 509.5,316.5C 506.492,312.505 504.659,308.172 504,303.5C 525.101,264.298 545.934,224.965 566.5,185.5 Z"/></g>
<g><path style="opacity:1" fill="#f8f8f8" d="M 591.5,185.5 C 595.555,185.176 599.555,185.509 603.5,186.5C 576.588,237.992 549.421,289.325 522,340.5C 520.333,337.5 518.667,334.5 517,331.5C 516.333,330.167 516.333,328.833 517,327.5C 542.101,280.298 566.934,232.964 591.5,185.5 Z"/></g>
<g><path style="opacity:1" fill="#8b8b8b" d="M 382.5,208.5 C 381.833,285.167 381.167,361.833 380.5,438.5C 380.333,361.166 380.5,283.833 381,206.5C 381.717,207.044 382.217,207.711 382.5,208.5 Z"/></g>
<g><path style="opacity:1" fill="#8b8b8b" d="M 618.5,438.5 C 617.833,361.833 617.167,285.167 616.5,208.5C 616.783,207.711 617.283,207.044 618,206.5C 618.5,283.833 618.667,361.166 618.5,438.5 Z"/></g>
<g><path style="opacity:1" fill="#727272" d="M 605.5,243.5 C 605.56,242.957 605.893,242.624 606.5,242.5C 607.832,307.999 607.832,373.332 606.5,438.5C 606.832,373.331 606.499,308.331 605.5,243.5 Z"/></g>
<g><path style="opacity:1" fill="#737373" d="M 393.5,245.5 C 392.501,309.665 392.168,373.998 392.5,438.5C 391.335,373.668 391.168,308.668 392,243.5C 392.717,244.044 393.217,244.711 393.5,245.5 Z"/></g>
<g><path style="opacity:1" fill="#f4f4f4" d="M 605.5,243.5 C 606.499,308.331 606.832,373.331 606.5,438.5C 602.833,438.5 599.167,438.5 595.5,438.5C 595.333,379.499 595.5,320.499 596,261.5C 599.447,255.604 602.614,249.604 605.5,243.5 Z"/></g>
<g><path style="opacity:1" fill="#f3f3f3" d="M 393.5,245.5 C 396.399,251.631 399.566,257.631 403,263.5C 403.5,321.832 403.667,380.166 403.5,438.5C 399.833,438.5 396.167,438.5 392.5,438.5C 392.168,373.998 392.501,309.665 393.5,245.5 Z"/></g>
<g><path style="opacity:1" fill="#7f7f7f" d="M 584.5,438.5 C 584.832,387.331 584.499,336.331 583.5,285.5C 583.783,284.711 584.283,284.044 585,283.5C 585.832,335.335 585.665,387.002 584.5,438.5 Z"/></g>
<g><path style="opacity:1" fill="#808080" d="M 415.5,287.5 C 414.501,337.664 414.168,387.997 414.5,438.5C 413.335,387.668 413.168,336.668 414,285.5C 414.717,286.044 415.217,286.711 415.5,287.5 Z"/></g>
<g><path style="opacity:1" fill="#f3f3f3" d="M 583.5,285.5 C 584.499,336.331 584.832,387.331 584.5,438.5C 580.833,438.5 577.167,438.5 573.5,438.5C 573.333,393.499 573.5,348.499 574,303.5C 577.434,297.631 580.601,291.631 583.5,285.5 Z"/></g>
<g><path style="opacity:1" fill="#f3f3f3" d="M 415.5,287.5 C 418.436,293.608 421.603,299.608 425,305.5C 425.5,349.832 425.667,394.165 425.5,438.5C 421.833,438.5 418.167,438.5 414.5,438.5C 414.168,387.997 414.501,337.664 415.5,287.5 Z"/></g>
<g><path style="opacity:1" fill="#7e7e7e" d="M 562.5,438.5 C 562.832,401.33 562.498,364.33 561.5,327.5C 561.783,326.711 562.283,326.044 563,325.5C 563.831,363.336 563.664,401.002 562.5,438.5 Z"/></g>
<g><path style="opacity:1" fill="#f3f3f3" d="M 561.5,327.5 C 562.498,364.33 562.832,401.33 562.5,438.5C 558.833,438.5 555.167,438.5 551.5,438.5C 551.333,407.498 551.5,376.498 552,345.5C 555.447,339.604 558.614,333.604 561.5,327.5 Z"/></g>
<g><path style="opacity:1" fill="#e9e9e9" d="M 435.5,327.5 C 439.81,333.437 443.643,339.77 447,346.5C 447.5,377.165 447.667,407.832 447.5,438.5C 443.5,438.5 439.5,438.5 435.5,438.5C 435.5,401.5 435.5,364.5 435.5,327.5 Z"/></g>
</svg>
