<?xml version="1.0" encoding="UTF-8"?>
<!DOCTYPE svg PUBLIC "-//W3C//DTD SVG 1.1//EN" "http://www.w3.org/Graphics/SVG/1.1/DTD/svg11.dtd">
<svg xmlns="http://www.w3.org/2000/svg" version="1.1" width="2000px" height="1500px" style="shape-rendering:geometricPrecision; text-rendering:geometricPrecision; image-rendering:optimizeQuality; fill-rule:evenodd; clip-rule:evenodd" xmlns:xlink="http://www.w3.org/1999/xlink">
<g><path style="opacity:1" fill="#fefffe" d="M -0.5,-0.5 C 666.167,-0.5 1332.83,-0.5 1999.5,-0.5C 1999.5,499.5 1999.5,999.5 1999.5,1499.5C 1332.83,1499.5 666.167,1499.5 -0.5,1499.5C -0.5,999.5 -0.5,499.5 -0.5,-0.5 Z"/></g>
<g><path style="opacity:1" fill="#000000" d="M 489.5,249.5 C 829.5,249.5 1169.5,249.5 1509.5,249.5C 1509.5,582.833 1509.5,916.167 1509.5,1249.5C 1169.5,1249.5 829.5,1249.5 489.5,1249.5C 489.5,916.167 489.5,582.833 489.5,249.5 Z"/></g>
<g><path style="opacity:1" fill="#a7a7a7" d="M 784.5,345.5 C 771.323,345.171 758.323,345.505 745.5,346.5C 744.957,346.44 744.624,346.107 744.5,345.5C 757.994,344.175 771.327,344.175 784.5,345.5 Z"/></g>
<g><path style="opacity:1" fill="#a8a8a8" d="M 1214.5,345.5 C 1227.67,344.175 1241.01,344.175 1254.5,345.5C 1254.38,346.107 1254.04,346.44 1253.5,346.5C 1240.68,345.505 1227.68,345.171 1214.5,345.5 Z"/></g>
<g><path style="opacity:1" fill="#828282" d="M 624.5,345.5 C 611.5,345.5 598.5,345.5 585.5,345.5C 585.5,614.833 585.5,884.167 585.5,1153.5C 585.5,1153.83 585.5,1154.17 585.5,1154.5C 584.5,884.667 584.167,614.667 584.5,344.5C 598.01,344.171 611.344,344.504 624.5,345.5 Z"/></g>
<g><path style="opacity:1" fill="#fefefe" d="M 624.5,345.5 C 729.726,544.28 834.726,743.28 939.5,942.5C 926.271,943.822 913.104,943.822 900,942.5C 807.141,766.113 714.308,589.78 621.5,413.5C 621.44,412.957 621.107,412.624 620.5,412.5C 619.5,659.499 619.167,906.499 619.5,1153.5C 608.167,1153.5 596.833,1153.5 585.5,1153.5C 585.5,884.167 585.5,614.833 585.5,345.5C 598.5,345.5 611.5,345.5 624.5,345.5 Z"/></g>
<g><path style="opacity:1" fill="#fcfcfc" d="M 1018.5,941.5 C 1005.68,942.495 992.677,942.829 979.5,942.5C 874.656,743.316 769.656,544.149 664.5,345C 677.833,344.333 691.167,344.333 704.5,345C 809.562,543.623 914.228,742.457 1018.5,941.5 Z"/></g>
<g><path style="opacity:1" fill="#fdfdfd" d="M 784.5,345.5 C 882.399,532.298 980.566,718.964 1079,905.5C 1177.43,718.964 1275.6,532.298 1373.5,345.5C 1386.83,345.5 1400.17,345.5 1413.5,345.5C 1413.5,614.833 1413.5,884.167 1413.5,1153.5C 1402.17,1153.5 1390.83,1153.5 1379.5,1153.5C 1379.83,906.499 1379.5,659.499 1378.5,412.5C 1377.89,412.624 1377.56,412.957 1377.5,413.5C 1284.69,589.78 1191.86,766.113 1099,942.5C 1085.56,943.822 1072.06,943.822 1058.5,942.5C 954.154,743.807 849.821,545.14 745.5,346.5C 758.323,345.505 771.323,345.171 784.5,345.5 Z"/></g>
<g><path style="opacity:1" fill="#fcfcfc" d="M 1214.5,345.5 C 1227.68,345.171 1240.68,345.505 1253.5,346.5C 1179.68,486.14 1105.85,625.806 1032,765.5C 1025.08,753.996 1018.41,742.329 1012,730.5C 1011.33,729.167 1011.33,727.833 1012,726.5C 1079.53,599.438 1147.03,472.438 1214.5,345.5 Z"/></g>
<g><path style="opacity:1" fill="#fcfcfc" d="M 1294.5,344.5 C 1307.5,344.5 1320.5,344.5 1333.5,344.5C 1247.4,510.702 1160.23,676.369 1072,841.5C 1065.67,830.167 1059.33,818.833 1053,807.5C 1052.33,806.5 1052.33,805.5 1053,804.5C 1133.73,651.275 1214.23,497.941 1294.5,344.5 Z"/></g>
<g><path style="opacity:1" fill="#828282" d="M 1373.5,345.5 C 1386.99,344.504 1400.66,344.171 1414.5,344.5C 1414.83,614.667 1414.5,884.667 1413.5,1154.5C 1413.5,1154.17 1413.5,1153.83 1413.5,1153.5C 1413.5,884.167 1413.5,614.833 1413.5,345.5C 1400.17,345.5 1386.83,345.5 1373.5,345.5 Z"/></g>
<g><path style="opacity:1" fill="#b8b8b8" d="M 621.5,413.5 C 620.5,660.333 620.167,907.333 620.5,1154.5C 608.833,1154.5 597.167,1154.5 585.5,1154.5C 585.5,1154.17 585.5,1153.83 585.5,1153.5C 596.833,1153.5 608.167,1153.5 619.5,1153.5C 619.167,906.499 619.5,659.499 620.5,412.5C 621.107,412.624 621.44,412.957 621.5,413.5 Z"/></g>
<g><path style="opacity:1" fill="#b8b8b8" d="M 1377.5,413.5 C 1377.56,412.957 1377.89,412.624 1378.5,412.5C 1379.5,659.499 1379.83,906.499 1379.5,1153.5C 1390.83,1153.5 1402.17,1153.5 1413.5,1153.5C 1413.5,1153.83 1413.5,1154.17 1413.5,1154.5C 1401.83,1154.5 1390.17,1154.5 1378.5,1154.5C 1378.83,907.333 1378.5,660.333 1377.5,413.5 Z"/></g>
<g><path style="opacity:1" fill="#fefefe" d="M 1342.5,525.5 C 1343.5,734.999 1343.83,944.666 1343.5,1154.5C 1331.83,1154.5 1320.17,1154.5 1308.5,1154.5C 1308.33,966.166 1308.5,777.833 1309,589.5C 1320.43,568.297 1331.6,546.964 1342.5,525.5 Z"/></g>
<g><path style="opacity:1" fill="#fefefe" d="M 655.5,529.5 C 667.48,550.788 678.98,572.455 690,594.5C 690.5,781.166 690.667,967.833 690.5,1154.5C 678.833,1154.5 667.167,1154.5 655.5,1154.5C 655.5,946.167 655.5,737.833 655.5,529.5 Z"/></g>
<g><path style="opacity:1" fill="#aaaaaa" d="M 1238.5,723.5 C 1238.5,866.833 1238.5,1010.17 1238.5,1153.5C 1249.83,1153.5 1261.17,1153.5 1272.5,1153.5C 1272.83,988.999 1272.5,824.666 1271.5,660.5C 1271.78,659.711 1272.28,659.044 1273,658.5C 1273.5,823.833 1273.67,989.166 1273.5,1154.5C 1261.5,1154.5 1249.5,1154.5 1237.5,1154.5C 1237.17,1010.67 1237.5,866.999 1238.5,723.5 Z"/></g>
<g><path style="opacity:1" fill="#fefefe" d="M 1271.5,660.5 C 1272.5,824.666 1272.83,988.999 1272.5,1153.5C 1261.17,1153.5 1249.83,1153.5 1238.5,1153.5C 1238.5,1010.17 1238.5,866.833 1238.5,723.5C 1249.75,702.658 1260.75,681.658 1271.5,660.5 Z"/></g>
<g><path style="opacity:1" fill="#aaaaaa" d="M 727.5,665.5 C 726.5,827.999 726.167,990.666 726.5,1153.5C 737.833,1153.5 749.167,1153.5 760.5,1153.5C 760.5,1011.83 760.5,870.167 760.5,728.5C 761.5,870.332 761.833,1012.33 761.5,1154.5C 749.5,1154.5 737.5,1154.5 725.5,1154.5C 725.333,990.833 725.5,827.166 726,663.5C 726.717,664.044 727.217,664.711 727.5,665.5 Z"/></g>
<g><path style="opacity:1" fill="#fefefe" d="M 727.5,665.5 C 738.755,686.342 749.755,707.342 760.5,728.5C 760.5,870.167 760.5,1011.83 760.5,1153.5C 749.167,1153.5 737.833,1153.5 726.5,1153.5C 726.167,990.666 726.5,827.999 727.5,665.5 Z"/></g>
<g><path style="opacity:1" fill="#4d4d4d" d="M 1202.5,1154.5 C 1202.83,1034.33 1202.5,914.332 1201.5,794.5C 1201.78,793.711 1202.28,793.044 1203,792.5C 1203.83,913.334 1203.67,1034 1202.5,1154.5 Z"/></g>
<g><path style="opacity:1" fill="#fefefe" d="M 1201.5,794.5 C 1202.5,914.332 1202.83,1034.33 1202.5,1154.5C 1190.83,1154.5 1179.17,1154.5 1167.5,1154.5C 1167.33,1055.5 1167.5,956.499 1168,857.5C 1179.18,836.473 1190.35,815.473 1201.5,794.5 Z"/></g>
<g><path style="opacity:1" fill="#4d4d4d" d="M 797.5,798.5 C 796.5,916.999 796.167,1035.67 796.5,1154.5C 795.334,1035.33 795.167,916.001 796,796.5C 796.717,797.044 797.217,797.711 797.5,798.5 Z"/></g>
<g><path style="opacity:1" fill="#fefefe" d="M 797.5,798.5 C 808.654,819.473 819.821,840.473 831,861.5C 831.5,959.166 831.667,1056.83 831.5,1154.5C 819.833,1154.5 808.167,1154.5 796.5,1154.5C 796.167,1035.67 796.5,916.999 797.5,798.5 Z"/></g>
<g><path style="opacity:1" fill="#757575" d="M 1018.5,941.5 C 1019.04,941.56 1019.38,941.893 1019.5,942.5C 1006.01,943.825 992.673,943.825 979.5,942.5C 992.677,942.829 1005.68,942.495 1018.5,941.5 Z"/></g>
</svg>
