<?xml version="1.0" encoding="UTF-8"?>
<!DOCTYPE svg PUBLIC "-//W3C//DTD SVG 1.1//EN" "http://www.w3.org/Graphics/SVG/1.1/DTD/svg11.dtd">
<svg xmlns="http://www.w3.org/2000/svg" version="1.1" width="1000px" height="750px" style="shape-rendering:geometricPrecision; text-rendering:geometricPrecision; image-rendering:optimizeQuality; fill-rule:evenodd; clip-rule:evenodd" xmlns:xlink="http://www.w3.org/1999/xlink">
<g><path style="opacity:1" fill="#fefefe" d="M -0.5,-0.5 C 332.833,-0.5 666.167,-0.5 999.5,-0.5C 999.5,249.5 999.5,499.5 999.5,749.5C 666.167,749.5 332.833,749.5 -0.5,749.5C -0.5,499.5 -0.5,249.5 -0.5,-0.5 Z"/></g>
<g><path style="opacity:1" fill="#000000" d="M 481.5,113.5 C 576.642,110.662 653.142,146.662 711,221.5C 765.175,301.411 774.508,386.411 739,476.5C 700.62,559.868 636.453,611.035 546.5,630C 439.97,645.459 353.803,610.959 288,526.5C 234.591,447.3 224.925,362.967 259,273.5C 293.497,196.184 351.33,145.684 432.5,122C 448.757,117.896 465.09,115.063 481.5,113.5 Z"/></g>
<g><path style="opacity:1" fill="#e8e8e8" d="M 402.5,269.5 C 399.167,269.5 395.833,269.5 392.5,269.5C 392.5,339.167 392.5,408.833 392.5,478.5C 395.167,478.5 397.833,478.5 400.5,478.5C 400.5,478.833 400.5,479.167 400.5,479.5C 397.5,479.5 394.5,479.5 391.5,479.5C 391.5,409.167 391.5,338.833 391.5,268.5C 395.371,268.185 399.038,268.518 402.5,269.5 Z"/></g>
<g><path style="opacity:1" fill="#fbfbfb" d="M 402.5,269.5 C 429.487,320.806 456.487,372.14 483.5,423.5C 479.955,424.791 476.455,424.791 473,423.5C 449.742,378.649 426.242,333.982 402.5,289.5C 402.013,288.527 401.513,287.527 401,286.5C 400.5,350.499 400.333,414.499 400.5,478.5C 397.833,478.5 395.167,478.5 392.5,478.5C 392.5,408.833 392.5,339.167 392.5,269.5C 395.833,269.5 399.167,269.5 402.5,269.5 Z"/></g>
<g><path style="opacity:1" fill="#f6f6f6" d="M 412.5,268.5 C 416.226,268.177 419.893,268.511 423.5,269.5C 450.5,320.833 477.5,372.167 504.5,423.5C 502.833,423.833 501.167,424.167 499.5,424.5C 496.989,424.712 494.822,424.045 493,422.5C 465.886,371.271 439.053,319.937 412.5,268.5 Z"/></g>
<g><path style="opacity:1" fill="#f9f9f9" d="M 596.5,269.5 C 599.833,269.5 603.167,269.5 606.5,269.5C 606.5,339.167 606.5,408.833 606.5,478.5C 603.833,478.5 601.167,478.5 598.5,478.5C 598.667,414.499 598.5,350.499 598,286.5C 597.487,287.527 596.987,288.527 596.5,289.5C 572.758,333.982 549.258,378.649 526,423.5C 522.214,424.795 518.38,424.795 514.5,423.5C 487.5,372.167 460.5,320.833 433.5,269.5C 437.045,268.209 440.545,268.209 444,269.5C 469.588,317.676 494.922,366.009 520,414.5C 545.513,366.14 571.013,317.806 596.5,269.5 Z"/></g>
<g><path style="opacity:1" fill="#f6f6f6" d="M 555.5,268.5 C 558.898,268.18 562.232,268.513 565.5,269.5C 546.588,305.659 527.421,341.659 508,377.5C 505.665,374.834 503.831,371.834 502.5,368.5C 520.179,335.14 537.846,301.806 555.5,268.5 Z"/></g>
<g><path style="opacity:1" fill="#f6f6f6" d="M 576.5,268.5 C 579.898,268.18 583.232,268.513 586.5,269.5C 563.833,312.167 541.167,354.833 518.5,397.5C 516.114,394.408 514.614,391.075 514,387.5C 534.846,347.807 555.679,308.14 576.5,268.5 Z"/></g>
<g><path style="opacity:1" fill="#e8e8e8" d="M 596.5,269.5 C 599.962,268.518 603.629,268.185 607.5,268.5C 607.5,338.833 607.5,409.167 607.5,479.5C 604.5,479.5 601.5,479.5 598.5,479.5C 598.5,479.167 598.5,478.833 598.5,478.5C 601.167,478.5 603.833,478.5 606.5,478.5C 606.5,408.833 606.5,339.167 606.5,269.5C 603.167,269.5 599.833,269.5 596.5,269.5 Z"/></g>
<g><path style="opacity:1" fill="#424242" d="M 402.5,289.5 C 401.833,352.833 401.167,416.167 400.5,479.5C 400.5,479.167 400.5,478.833 400.5,478.5C 400.333,414.499 400.5,350.499 401,286.5C 401.513,287.527 402.013,288.527 402.5,289.5 Z"/></g>
<g><path style="opacity:1" fill="#424242" d="M 598.5,478.5 C 598.5,478.833 598.5,479.167 598.5,479.5C 597.833,416.167 597.167,352.833 596.5,289.5C 596.987,288.527 597.487,287.527 598,286.5C 598.5,350.499 598.667,414.499 598.5,478.5 Z"/></g>
<g><path style="opacity:1" fill="#909090" d="M 588.5,479.5 C 588.832,425.331 588.499,371.331 587.5,317.5C 587.783,316.711 588.283,316.044 589,315.5C 589.832,370.335 589.665,425.002 588.5,479.5 Z"/></g>
<g><path style="opacity:1" fill="#919191" d="M 411.5,319.5 C 410.501,372.664 410.168,425.997 410.5,479.5C 409.335,425.668 409.168,371.668 410,317.5C 410.717,318.044 411.217,318.711 411.5,319.5 Z"/></g>
<g><path style="opacity:1" fill="#f4f4f4" d="M 587.5,317.5 C 588.499,371.331 588.832,425.331 588.5,479.5C 585.5,479.5 582.5,479.5 579.5,479.5C 579.333,430.499 579.5,381.499 580,332.5C 582.527,327.447 585.027,322.447 587.5,317.5 Z"/></g>
<g><path style="opacity:1" fill="#f2f2f2" d="M 411.5,319.5 C 413.77,324.275 416.27,328.942 419,333.5C 419.5,382.166 419.667,430.832 419.5,479.5C 416.5,479.5 413.5,479.5 410.5,479.5C 410.168,425.997 410.501,372.664 411.5,319.5 Z"/></g>
<g><path style="opacity:1" fill="#464646" d="M 569.5,351.5 C 569.56,350.957 569.893,350.624 570.5,350.5C 571.831,393.665 571.831,436.665 570.5,479.5C 570.5,479.167 570.5,478.833 570.5,478.5C 570.832,435.997 570.499,393.663 569.5,351.5 Z"/></g>
<g><path style="opacity:1" fill="#474747" d="M 429.5,353.5 C 428.501,394.997 428.168,436.663 428.5,478.5C 428.5,478.833 428.5,479.167 428.5,479.5C 427.335,437.002 427.169,394.335 428,351.5C 428.717,352.044 429.217,352.711 429.5,353.5 Z"/></g>
<g><path style="opacity:1" fill="#fefefe" d="M 569.5,351.5 C 570.499,393.663 570.832,435.997 570.5,478.5C 567.833,478.5 565.167,478.5 562.5,478.5C 562.5,441.167 562.5,403.833 562.5,366.5C 564.576,361.349 566.91,356.349 569.5,351.5 Z"/></g>
<g><path style="opacity:1" fill="#fefefe" d="M 429.5,353.5 C 431.847,358.193 434.18,362.86 436.5,367.5C 436.5,404.5 436.5,441.5 436.5,478.5C 433.833,478.5 431.167,478.5 428.5,478.5C 428.168,436.663 428.501,394.997 429.5,353.5 Z"/></g>
<g><path style="opacity:1" fill="#e3e3e3" d="M 562.5,366.5 C 562.5,403.833 562.5,441.167 562.5,478.5C 565.167,478.5 567.833,478.5 570.5,478.5C 570.5,478.833 570.5,479.167 570.5,479.5C 567.5,479.5 564.5,479.5 561.5,479.5C 561.168,441.663 561.502,403.996 562.5,366.5 Z"/></g>
<g><path style="opacity:1" fill="#e3e3e3" d="M 436.5,367.5 C 437.498,404.663 437.832,441.996 437.5,479.5C 434.5,479.5 431.5,479.5 428.5,479.5C 428.5,479.167 428.5,478.833 428.5,478.5C 431.167,478.5 433.833,478.5 436.5,478.5C 436.5,441.5 436.5,404.5 436.5,367.5 Z"/></g>
<g><path style="opacity:1" fill="#fbfbfb" d="M 551.5,385.5 C 552.498,416.662 552.832,447.996 552.5,479.5C 549.5,479.5 546.5,479.5 543.5,479.5C 543.333,453.165 543.5,426.831 544,400.5C 547.038,395.757 549.538,390.757 551.5,385.5 Z"/></g>
<g><path style="opacity:1" fill="#fbfbfb" d="M 446.5,386.5 C 449.306,391.437 452.139,396.437 455,401.5C 455.5,427.498 455.667,453.498 455.5,479.5C 452.5,479.5 449.5,479.5 446.5,479.5C 446.5,448.5 446.5,417.5 446.5,386.5 Z"/></g>
</svg>
